<svg 
    id="Layer_1" 
    data-name="Layer 1" 
    xmlns="http://www.w3.org/2000/svg" 
    viewBox="0 0 510.24 74.73">
    <defs>
        <style>.cls-1{fill:#fffccc;}</style>
    </defs>
    <path 
        class="cls-1" 
        d="M.3,74.56c.2-3.31.41-9.43.41-15.13V1H16.47V29.89h.2c3-4.35,8.29-7.15,15.34-7.15,12.13,0,21,10.06,20.94,25.6C53,66.58,41.34,75.7,29.73,75.7c-5.91,0-11.61-2.17-15.23-8.18h-.21l-.62,7ZM16.47,53a11.4,11.4,0,0,0,.31,2.79A9.53,9.53,0,0,0,26,63.27c6.74,0,10.88-5.19,10.88-14.31,0-7.87-3.52-14.09-10.88-14.09a9.75,9.75,0,0,0-9.22,7.77,13,13,0,0,0-.31,2.9Z" transform="translate(-0.3 -0.98)"/><path class="cls-1" d="M113.06,48.65c0,18.55-13.16,27.05-26.74,27.05C71.5,75.7,60.1,66,60.1,49.59S70.88,22.74,87.15,22.74C102.69,22.74,113.06,33.42,113.06,48.65Zm-36.69.52c0,8.71,3.63,15.24,10.36,15.24,6.12,0,10.06-6.12,10.06-15.24,0-7.56-2.9-15.23-10.06-15.23C79.17,33.94,76.37,41.71,76.37,49.17Z" transform="translate(-0.3 -0.98)"/><path class="cls-1" d="M173.17,48.65c0,18.55-13.16,27.05-26.74,27.05-14.82,0-26.22-9.74-26.22-26.11S131,22.74,147.26,22.74C162.81,22.74,173.17,33.42,173.17,48.65Zm-36.69.52c0,8.71,3.63,15.24,10.37,15.24,6.11,0,10.05-6.12,10.05-15.24,0-7.56-2.9-15.23-10.05-15.23C139.28,33.94,136.48,41.71,136.48,49.17Z" transform="translate(-0.3 -0.98)"/><path class="cls-1" d="M198.67,45.23h.21c1.14-2.07,2.38-4.14,3.62-6.11l10.27-15.24h19L213.59,44.4l20.73,30.16H214.94L202.71,53.73l-4,5V74.56H182.92V1h15.75Z" transform="translate(-0.3 -0.98)"/><path class="cls-1" d="M240.23,1H256V74.56H240.23Z" transform="translate(-0.3 -0.98)"/><path class="cls-1" d="M318.79,48.65c0,18.55-13.16,27.05-26.74,27.05-14.82,0-26.22-9.74-26.22-26.11s10.78-26.85,27.05-26.85C308.43,22.74,318.79,33.42,318.79,48.65Zm-36.69.52c0,8.71,3.63,15.24,10.37,15.24,6.11,0,10-6.12,10-15.24,0-7.56-2.9-15.23-10-15.23C284.9,33.94,282.1,41.71,282.1,49.17Z" 
        transform="translate(-0.3 -0.98)"/>
    <path class="cls-1" 
        d="M339.31,23.88l6.85,23.53a119.32,119.32,0,0,1,2.9,12.33h.31c.83-4.14,1.66-8,2.8-12.33l6.53-23.53h16.58L356.42,74.56H340.66L322.21,23.88Z" transform="translate(-0.3 -0.98)"/><path class="cls-1" d="M393.11,54.25c.51,6.53,6.94,9.64,14.3,9.64a44.84,44.84,0,0,0,14-2.07l2.07,10.67a50.05,50.05,0,0,1-18.34,3.11c-17.21,0-27.05-9.95-27.05-25.81,0-12.85,8-27,25.6-27,16.37,0,22.59,12.75,22.59,25.29a37,37,0,0,1-.52,6.22Zm18.55-10.78c0-3.83-1.66-10.26-8.92-10.26-6.63,0-9.32,6-9.74,10.26Z" 
        transform="translate(-0.3 -0.98)"/>
    <path 
        class="cls-1" 
        d="M435.71,40.57c0-7.46-.21-12.33-.42-16.69h13.58l.52,9.33h.41c2.59-7.36,8.81-10.47,13.68-10.47a16.07,16.07,0,0,1,3.32.21V37.77a22.43,22.43,0,0,0-4.25-.41c-5.81,0-9.74,3.1-10.78,8a18.3,18.3,0,0,0-.31,3.52v25.7H435.71Z" transform="translate(-0.3 -0.98)"/><path class="cls-1" d="M475,60.78a30.88,30.88,0,0,0,13.58,3.83c4.77,0,6.74-1.65,6.74-4.25s-1.56-3.83-7.46-5.8c-10.47-3.52-14.51-9.22-14.41-15.23,0-9.44,8.08-16.59,20.62-16.59a34.11,34.11,0,0,1,14.31,2.9l-2.8,10.89a24.78,24.78,0,0,0-11-2.91c-3.83,0-6,1.56-6,4.15,0,2.38,2,3.63,8.19,5.8,9.64,3.32,13.68,8.19,13.78,15.65,0,9.44-7.46,16.38-22,16.38-6.63,0-12.54-1.45-16.37-3.52Z" 
        transform="translate(-0.3 -0.98)"/>
</svg>